0
SECTION
2
HEADER
9
$INSUNITS
70
4
9
$ACADVER
1
AC1014
9
$HANDSEED
5
FFFF
0
ENDSEC
0
SECTION
2
TABLES
0
TABLE
2
VPORT
5
8
100
AcDbSymbolTable
0
ENDTAB
0
TABLE
2
LTYPE
5
5
100
AcDbSymbolTable
0
LTYPE
5
14
100
AcDbSymbolTableRecord
100
AcDbLinetypeTableRecord
2
BYBLOCK
70
0
0
LTYPE
5
15
100
AcDbSymbolTableRecord
100
AcDbLinetypeTableRecord
2
BYLAYER
70
0
0
ENDTAB
0
TABLE
2
LAYER
5
2
100
AcDbSymbolTable
70
2
0
LAYER
5
50
100
AcDbSymbolTableRecord
100
AcDbLayerTableRecord
2
0
70
0
6
CONTINUOUS
0
ENDTAB
0
TABLE
2
STYLE
5
3
100
AcDbSymbolTable
70
1
0
STYLE
5
11
100
AcDbSymbolTableRecord
100
AcDbTextStyleTableRecord
2
STANDARD
70
0
0
ENDTAB
0
TABLE
2
VIEW
5
6
100
AcDbSymbolTable
70
0
0
ENDTAB
0
TABLE
2
UCS
5
7
100
AcDbSymbolTable
70
0
0
ENDTAB
0
TABLE
2
APPID
5
9
100
AcDbSymbolTable
70
2
0
APPID
5
12
100
AcDbSymbolTableRecord
100
AcDbRegAppTableRecord
2
ACAD
70
0
0
ENDTAB
0
TABLE
2
DIMSTYLE
5
A
100
AcDbSymbolTable
70
1
0
ENDTAB
0
TABLE
2
BLOCK_RECORD
5
1
100
AcDbSymbolTable
70
1
0
BLOCK_RECORD
5
1F
100
AcDbSymbolTableRecord
100
AcDbBlockTableRecord
2
*MODEL_SPACE
0
BLOCK_RECORD
5
1B
100
AcDbSymbolTableRecord
100
AcDbBlockTableRecord
2
*PAPER_SPACE
0
ENDTAB
0
ENDSEC
0
SECTION
2
BLOCKS
0
BLOCK
5
20
100
AcDbEntity
100
AcDbBlockBegin
2
*MODEL_SPACE
0
ENDBLK
5
21
100
AcDbEntity
100
AcDbBlockEnd
0
BLOCK
5
1C
100
AcDbEntity
100
AcDbBlockBegin
2
*PAPER_SPACE
0
ENDBLK
5
1D
100
AcDbEntity
100
AcDbBlockEnd
0
ENDSEC
0
SECTION
2
ENTITIES
0
LWPOLYLINE
5
100
100
AcDbEntity
8
0
100
AcDbPolyline
90
31
70
1
43
0.0
10
-110.4499940031487
20
32.891758353114049
42
0.41421356237361173
10
-111.72330846276014
20
32.276396437695254
10
-116.00000000000001
20
20
10
-116.00000000000001
20
0
10
-70.000000000000014
20
4.4408920985006262e-15
10
-70.000000000000014
20
-4.0000000000000036
10
-50.000000000000007
20
-3.9999999999999991
10
-50
20
4.4408920985006262e-15
10
0
20
0
10
-1.5099033134902129e-13
20
145
10
3.9999999999998126
20
145
10
3.9999999999998126
20
165
10
-1.865174681370263e-13
20
165
10
3.1086244689504383e-14
20
252.00000000000003
10
-13.999999999999968
20
252.00000000000051
10
-37.239554728098355
20
185.29002468564812
10
-23.074481915410377
20
180.35538060420231
10
-24.390387003785257
20
176.5780278541759
10
-38.555459816486675
20
181.51267193558544
10
-78.032612468068038
20
68.192089433899667
10
-63.867539655359529
20
63.257445352444265
10
-65.183444743744658
20
59.480092602388488
10
-79.348517556494272
20
64.414736683862728
10
-95.797331161303617
20
17.197827308123088
10
-98.15817663008842
20
18.020267988371078
10
-99.145105446377571
20
15.187253425828533
10
-103.86679638394853
20
16.832134786310426
10
-102.8798675676594
20
19.665149348852971
10
-105.24071303644658
20
20.487590029088857
10
-102.27992658761443
20
28.986633716731426
42
0.41421356237168833
10
-102.8952885030331
20
30.259948176337804
0
CIRCLE
5
101
100
AcDbEntity
8
0
100
AcDbCircle
10
-108
20
8
30
0
40
1.6000000000000003
210
0
220
-0
230
1
0
CIRCLE
5
102
100
AcDbEntity
8
0
100
AcDbCircle
10
-64.148050919622378
20
77.65089224436511
30
0
40
1.6000000000000003
210
0
220
-0
230
1
0
CIRCLE
5
103
100
AcDbEntity
8
0
100
AcDbCircle
10
-13.500000000000188
20
155
30
0
40
1.6000000000000003
210
0
220
-0
230
1
0
CIRCLE
5
104
100
AcDbEntity
8
0
100
AcDbCircle
10
-60.000000000000007
20
13.499999999999998
30
0
40
1.6000000000000003
210
0
220
-0
230
1
0
CIRCLE
5
105
100
AcDbEntity
8
0
100
AcDbCircle
10
-33.553257614615191
20
165.47434368316834
30
0
40
1.6000000000000003
210
0
220
-0
230
1
0
CIRCLE
5
106
100
AcDbEntity
8
0
100
AcDbCircle
10
-89.999999731779099
20
8
30
0
40
1.6000000000000003
210
0
220
-0
230
1
0
LWPOLYLINE
5
107
100
AcDbEntity
8
0
100
AcDbPolyline
90
4
70
1
43
0.0
10
-30
20
30
10
-10
20
30
10
-10
20
10
10
-30
20
10
0
ENDSEC
0
SECTION
2
OBJECTS
0
DICTIONARY
5
C
100
AcDbDictionary
3
ACAD_GROUP
350
D
3
ACAD_MLINESTYLE
350
17
0
DICTIONARY
5
D
100
AcDbDictionary
0
DICTIONARY
5
1A
330
C
100
AcDbDictionary
0
DICTIONARY
5
17
100
AcDbDictionary
0
ENDSEC
0
EOF
