0
SECTION
2
HEADER
9
$INSUNITS
70
4
9
$ACADVER
1
AC1014
9
$HANDSEED
5
FFFF
0
ENDSEC
0
SECTION
2
TABLES
0
TABLE
2
VPORT
5
8
100
AcDbSymbolTable
0
ENDTAB
0
TABLE
2
LTYPE
5
5
100
AcDbSymbolTable
0
LTYPE
5
14
100
AcDbSymbolTableRecord
100
AcDbLinetypeTableRecord
2
BYBLOCK
70
0
0
LTYPE
5
15
100
AcDbSymbolTableRecord
100
AcDbLinetypeTableRecord
2
BYLAYER
70
0
0
ENDTAB
0
TABLE
2
LAYER
5
2
100
AcDbSymbolTable
70
2
0
LAYER
5
50
100
AcDbSymbolTableRecord
100
AcDbLayerTableRecord
2
0
70
0
6
CONTINUOUS
0
ENDTAB
0
TABLE
2
STYLE
5
3
100
AcDbSymbolTable
70
1
0
STYLE
5
11
100
AcDbSymbolTableRecord
100
AcDbTextStyleTableRecord
2
STANDARD
70
0
0
ENDTAB
0
TABLE
2
VIEW
5
6
100
AcDbSymbolTable
70
0
0
ENDTAB
0
TABLE
2
UCS
5
7
100
AcDbSymbolTable
70
0
0
ENDTAB
0
TABLE
2
APPID
5
9
100
AcDbSymbolTable
70
2
0
APPID
5
12
100
AcDbSymbolTableRecord
100
AcDbRegAppTableRecord
2
ACAD
70
0
0
ENDTAB
0
TABLE
2
DIMSTYLE
5
A
100
AcDbSymbolTable
70
1
0
ENDTAB
0
TABLE
2
BLOCK_RECORD
5
1
100
AcDbSymbolTable
70
1
0
BLOCK_RECORD
5
1F
100
AcDbSymbolTableRecord
100
AcDbBlockTableRecord
2
*MODEL_SPACE
0
BLOCK_RECORD
5
1B
100
AcDbSymbolTableRecord
100
AcDbBlockTableRecord
2
*PAPER_SPACE
0
ENDTAB
0
ENDSEC
0
SECTION
2
BLOCKS
0
BLOCK
5
20
100
AcDbEntity
100
AcDbBlockBegin
2
*MODEL_SPACE
0
ENDBLK
5
21
100
AcDbEntity
100
AcDbBlockEnd
0
BLOCK
5
1C
100
AcDbEntity
100
AcDbBlockBegin
2
*PAPER_SPACE
0
ENDBLK
5
1D
100
AcDbEntity
100
AcDbBlockEnd
0
ENDSEC
0
SECTION
2
ENTITIES
0
CIRCLE
5
100
100
AcDbEntity
8
0
100
AcDbCircle
10
-18
20
48.999999999999886
30
0
40
1.5000000000000002
210
0
220
-0
230
1
0
CIRCLE
5
101
100
AcDbEntity
8
0
100
AcDbCircle
10
-38
20
48.999999999999886
30
0
40
1.5000000000000002
210
0
220
-0
230
1
0
CIRCLE
5
102
100
AcDbEntity
8
0
100
AcDbCircle
10
-20
20
62
30
0
40
1.5999999999999996
210
0
220
-0
230
1
0
CIRCLE
5
103
100
AcDbEntity
8
0
100
AcDbCircle
10
20
20
102
30
0
40
1.5999999999999996
210
0
220
-0
230
1
0
CIRCLE
5
104
100
AcDbEntity
8
0
100
AcDbCircle
10
-45
20
63.999999999999901
30
0
40
1.5999999999999996
210
0
220
-0
230
1
0
CIRCLE
5
105
100
AcDbEntity
8
0
100
AcDbCircle
10
45
20
63.999999999999901
30
0
40
1.5999999999999996
210
0
220
-0
230
1
0
CIRCLE
5
106
100
AcDbEntity
8
0
100
AcDbCircle
10
1.9970343726461775e-15
20
8.9999999999998614
30
0
40
1.5999999999999996
210
0
220
-0
230
1
0
CIRCLE
5
107
100
AcDbEntity
8
0
100
AcDbCircle
10
20
20
62
30
0
40
1.5999999999999996
210
0
220
-0
230
1
0
CIRCLE
5
108
100
AcDbEntity
8
0
100
AcDbCircle
10
-20
20
102
30
0
40
1.5999999999999996
210
0
220
-0
230
1
0
LWPOLYLINE
5
109
100
AcDbEntity
8
0
100
AcDbPolyline
90
14
70
1
43
0.0
10
13.5
20
48.708099243547835
42
0.3056146845806969
10
14.749999999999996
20
46.85404962177391
42
-0.30561468458069918
10
15.999999999999996
20
45
10
15.999999999999996
20
37
42
-0.41421356237309503
10
13.999999999999995
20
35
10
-14.000000000000004
20
35
42
-0.41421356237309503
10
-16.000000000000004
20
37
10
-15.999999999999996
20
45
42
-0.30561468458069846
10
-14.75
20
46.85404962177391
42
0.30561468458070223
10
-13.5
20
48.708099243547835
10
-13.499999999999993
20
92
42
-0.41421356237309503
10
-11.5
20
93.999999999999986
10
11.5
20
93.999999999999986
42
-0.41421356237309503
10
13.499999999999998
20
92
0
LWPOLYLINE
5
110
100
AcDbEntity
8
0
100
AcDbPolyline
90
4
70
1
43
0.0
10
-54.000000000000021
20
73.999999999999901
10
-50
20
73.999999999999901
10
-50
20
53.999999999999901
10
-54
20
53.999999999999901
0
LWPOLYLINE
5
111
100
AcDbEntity
8
0
100
AcDbPolyline
90
4
70
1
43
0.0
10
50
20
73.999999999999901
10
54
20
73.999999999999901
10
54
20
53.999999999999901
10
50
20
53.999999999999901
0
LWPOLYLINE
5
112
100
AcDbEntity
8
0
100
AcDbPolyline
90
14
70
1
43
0.0
10
-80.000000000000028
20
3.999999999999897
10
-80.000000000000028
20
1.7763568394002505e-14
10
-30
20
0
10
-30.000000000000004
20
3.999999999999897
10
30.000000000000004
20
3.9999999999998792
10
30.000000000000014
20
-3.5527136788005009e-14
10
79.999999999999972
20
-8.8817841970012523e-14
10
79.999999999999972
20
3.9999999999999147
10
139.99999999999997
20
3.9999999999999147
10
140
20
43.999999999999922
10
80
20
123.99999999999991
10
-80
20
123.99999999999991
10
-140.00000000000003
20
43.999999999999943
10
-140.00000000000003
20
3.9999999999999147
0
ENDSEC
0
SECTION
2
OBJECTS
0
DICTIONARY
5
C
100
AcDbDictionary
3
ACAD_GROUP
350
D
3
ACAD_MLINESTYLE
350
17
0
DICTIONARY
5
D
100
AcDbDictionary
0
DICTIONARY
5
1A
330
C
100
AcDbDictionary
0
DICTIONARY
5
17
100
AcDbDictionary
0
ENDSEC
0
EOF
